name processed_emg_signals
nRows=66
nColumns=7
 
endheader
time	LGLTMED	LRF	LADDLONG	LBF	LTA	LGM
0.0751999999999999	-0.0041199382394552	-0.0035095773637294	-0.0099183665588498	0.0041199335828423	-0.0267032906413078	-0.0199893210083246
0.0851999999999999	0.0328068956732749	-0.0016784947365522	0.009613181464374	0.0019836705178022	-0.0187685992568731	-0.0148012535646557
0.0951999999999999	0.0526436232030391	-0.0151064340025186	-0.0108339078724384	-0.0041199382394552	0.0059510162100195	0.0053406553342938
0.10519999999999988	0.0257877446711063	0.01449606847018	0.0007629487663507	0.0099183619022369	-0.0337224416434764	-0.0056458404287695
0.11519999999999989	0.0175478719174861	-0.0062562013044953	-0.0224307645112276	-0.0108339078724384	-0.0035095773637294	-0.0096131861209869
0.12519999999999987	0.0013733096420764	-0.0184634178876876	0.0004577683284878	0.0007629487663507	-0.0215152241289615	-0.0001525925472378
0.13519999999999988	-0.004425118677318	-0.022735945880413	-0.0022888556122779	-0.009308005683124	-0.0126649904996156	-0.0126649904996156
0.14519999999999986	-0.0077821034938097	-0.0080872839316725	-0.0148012535646557	0.0123598054051399	-0.0263981111347675	0.0209048576653003
0.15519999999999984	0.0190737750381231	0.0224307589232921	0.0196841359138488	0.0172426924109458	-0.0331120789051055	-0.0328068993985652
0.16519999999999985	0.0193789564073085	-0.0370794236660003	-0.0038147578015923	0.0013733096420764	-0.0013733142986893	0.000152587890625
0.17519999999999986	-0.009308005683124	0.004730294458568	-0.0080872839316725	-0.0047302991151809	-0.0175478775054216	0.0114442640915513
0.18519999999999984	0.0035095727071166	0.0114442640915513	-0.0022888556122779	0.0538643449544906	-0.03677424415946	0.0148012489080429
0.19519999999999982	0.0221255794167518	-0.0108339078724384	0.01449606847018	-0.0004577729851007	0.0004577683284878	0.0114442640915513
0.20519999999999983	0.0242618434131145	-0.0129701709374785	-0.0129701709374785	0.009613181464374	0.0105287227779626	0.0080872792750597
0.2151999999999998	-0.0135805318132042	-0.0163271557539701	-0.0660715699195861	0.0102235423400998	-0.0065613817423582	0.0056458357721567
0.22519999999999982	0.0202944967895746	-0.0321965366601944	-0.030060276389122	0.0080872792750597	-0.0175478775054216	0.018158234655857
0.2351999999999998	0.0032043922692537	0.0199893154203891	0.0010681292042136	0.0007629487663507	-0.0138857122510671	0.0016784900799393
0.24519999999999978	-0.0056458404287695	-0.0172426961362361	0.0251773837953805	0.0282291881740093	-0.0007629534229636	-0.009308005683124
0.25519999999999976	-0.0038147578015923	-0.0575265139341354	0.0044251140207052	-0.0099183665588498	-0.034332800656557	0.0248722024261951
0.26519999999999977	0.0257877446711063	-0.0263981111347675	-0.0242618471384048	0.0010681292042136	-0.0102235469967126	0.0105287227779626
0.2751999999999998	0.0148012489080429	-0.0013733142986893	-0.0038147578015923	0.0282291881740093	-0.0193789601325988	0.004730294458568
0.2851999999999998	-0.0047302991151809	-0.0144960731267929	-0.0041199382394552	0.0035095727071166	-0.034332800656557	0.0111390836536884
0.2951999999999998	0.0178530532866716	0.0053406553342938	0.034637976437807	-0.0019836751744151	-0.0196841396391391	0.0154116097837686
0.30519999999999975	0.0224307589232921	-0.0270084701478481	-0.0059510208666324	0.0016784900799393	-0.0160219743847847	0.0132753467187285
0.3151999999999997	-0.0056458404287695	-0.0090028252452611	-0.0096131861209869	0.0245670229196548	-0.011749449186027	0.0062561966478824
0.3251999999999997	0.0379949621856212	-0.0169375166296958	0.0080872792750597	0.0007629487663507	-0.0172426961362361	0.0041199335828423
0.3351999999999997	0.0190737750381231	-0.0050354795530438	0.0099183619022369	-0.0025940360501408	-0.02029450237751	0.0126649858430027
0.34519999999999973	0.0184634141623973	-0.0148012535646557	-0.0154116144403815	0.0123598054051399	-0.0291447341442108	0.0209048576653003
0.35519999999999974	0.0022888509556651	0.0059510162100195	-0.03677424415946	0.0050354748964309	-0.0431830361485481	-0.0028992164880037
0.36519999999999975	-0.0016784947365522	-0.0233463048934936	-0.0477607399225235	0.0126649858430027	-0.004425118677318	0.0138857075944542
0.37519999999999976	0.007171737961471	-0.0041199382394552	-0.0364690646529197	0.0160219706594944	-0.0257877483963966	0.0117494445294141
0.38519999999999965	0.0132753467187285	0.0032043922692537	-0.0160219743847847	0.0022888509556651	-0.0169375166296958	-0.0080872839316725
0.39519999999999966	-0.0001525925472378	-0.0080872839316725	0.0587472319602966	0.0163271501660347	-0.004425118677318	0.0068665575236082
0.40519999999999967	0.018158234655857	-0.0050354795530438	0.0447089299559593	0.0004577683284878	-0.0160219743847847	0.004730294458568
0.4151999999999997	0.0080872792750597	-0.0163271557539701	0.0312809944152832	0.0016784900799393	0.0025940313935279	0.0105287227779626
0.4251999999999997	0.018158234655857	-0.0062562013044953	0.0175478719174861	0.0019836705178022	0.0035095727071166	-0.0071717426180839
0.4351999999999997	0.0157167911529541	-0.0224307645112276	0.000152587890625	0.0086976401507854	0.0062561966478824	-0.0022888556122779
0.4451999999999997	0.009613181464374	-0.0028992164880037	-0.0593575984239578	0.0053406553342938	0.0209048576653003	0.0050354748964309
0.4551999999999996	0.0019836705178022	0.0083924597129225	-0.0651560276746749	0.0056458357721567	-0.0608834996819496	-0.0129701709374785
0.4651999999999996	0.0105287227779626	-0.025177389383316	-0.0181582383811473	0.0105287227779626	-0.0199893210083246	-0.0129701709374785
0.4751999999999996	0.0123598054051399	0.0038147531449794	-0.0032043969258666	0.0032043922692537	-0.0108339078724384	-0.0013733142986893
0.48519999999999963	0.0028992118313908	-0.0291447341442108	0.0013733096420764	0.0090028205886483	0.0117494445294141	0.018158234655857
0.49519999999999964	0.0025940313935279	0.0202944967895746	0.0218203999102115	0.000152587890625	-0.0032043969258666	0.0062561966478824
0.5051999999999996	0.0157167911529541	0.0080872792750597	-0.0129701709374785	0.0038147531449794	0.004730294458568	0.0059510162100195
0.5151999999999997	0.0151064293459057	-0.0032043969258666	0.0056458357721567	0.0083924597129225	0.0724803507328033	0.0102235423400998
0.5251999999999996	0.0138857075944542	-0.0697337314486503	0.0184634141623973	0.009613181464374	0.0294499099254608	-0.006866562180221
0.5351999999999996	0.0086976401507854	0.0202944967895746	-0.0035095773637294	0.0062561966478824	-0.0157167948782444	0.0227359402924776
0.5451999999999996	0.007171737961471	-0.0987258702516555	-0.0080872839316725	0.0019836705178022	0.0178530532866716	0.0111390836536884
0.5551999999999996	0.0035095727071166	0.0041199335828423	0.0010681292042136	0.0086976401507854	0.0209048576653003	-0.004425118677318
0.5651999999999996	0.0074769183993339	-0.0254825688898563	-0.0157167948782444	0.0157167911529541	0.0007629487663507	0.0132753467187285
0.5751999999999996	0.0050354748964309	-0.0514229051768779	0.0114442640915513	-0.0062562013044953	0.0315861739218235	0.0099183619022369
0.5851999999999996	0.0117494445294141	-0.0221255831420421	0.0138857075944542	0.0032043922692537	-0.0910963639616966	0.0086976401507854
0.5951999999999996	0.0151064293459057	-0.0193789601325988	-0.0050354795530438	-0.0025940360501408	-0.0108339078724384	0.0114442640915513
0.6051999999999996	0.0010681292042136	-0.027618832886219	-0.0239566676318645	0.0114442640915513	0.0019836705178022	0.0068665575236082
0.6151999999999995	0.0138857075944542	-0.0083924643695354	-0.062714584171772	0.0178530532866716	-0.0022888556122779	0.0065613770857453
0.6251999999999995	0.0032043922692537	-0.0111390883103013	-0.0230411253869533	0.0260929241776466	0.012054624967277	0.0114442640915513
0.6351999999999995	0.0068665575236082	-0.0050354795530438	0.0553902462124824	0.0019836705178022	0.03707941994071	0.0059510162100195
0.6451999999999996	0.0086976401507854	-0.0148012535646557	0.0971999689936637	0.0090028205886483	-0.0288395546376705	0.009613181464374
0.6551999999999996	0.0126649858430027	-0.0184634178876876	0.0428778491914272	0.0056458357721567	-0.0111390883103013	0.0325017124414444
0.6651999999999996	0.0126649858430027	0.009613181464374	-0.0154116144403815	-0.0032043969258666	-0.0236514862626791	0.0193789564073085
0.6751999999999996	0.0135805271565914	-0.0181582383811473	-0.0410467721521854	0.0019836705178022	-0.0059510208666324	0.0038147531449794
0.6851999999999995	0.0111390836536884	-0.0248722080141305	-0.0364690646529197	0.009613181464374	-0.0120546296238899	-0.0096131861209869
0.6951999999999995	-0.0120546296238899	-0.0166323371231555	-0.028534373268485	0.0294499099254608	-0.027618832886219	0.0032043922692537
0.7051999999999995	0.0062561966478824	-0.0184634178876876	-0.0221255831420421	0.0141908880323171	-0.0718699991703033	0.0019836705178022
0.7151999999999995	0.0178530532866716	-0.0138857122510671	-0.0108339078724384	0.0102235423400998	-0.0004577729851007	0.0358586981892585
0.7251999999999995	0.0251773837953805	-0.0456244796514511	0.0038147531449794	-0.0077821034938097	-0.0038147578015923	-0.0050354795530438
